<svg xmlns="http://www.w3.org/2000/svg" viewBox="0 0 512 512" style="fill-rule:evenodd;clip-rule:evenodd">
  <defs>
    <radialGradient id="background" cx="0" cy="0" r="1" gradientUnits="userSpaceOnUse" gradientTransform="translate(180 116) rotate(52) scale(520)">
      <stop stop-color="#472b78" />
      <stop offset="0.5" stop-color="#171b4b" />
      <stop offset="1" stop-color="#070a1b" />
    </radialGradient>
    <linearGradient id="charge" x1="176" y1="152" x2="338" y2="372" gradientUnits="userSpaceOnUse">
      <stop stop-color="#67e8f9" />
      <stop offset="0.5" stop-color="#a78bfa" />
      <stop offset="1" stop-color="#f472b6" />
    </linearGradient>
  </defs>
  <path d="M396 0c64.022 0 116 51.978 116 116v280c0 64.022-51.978 116-116 116H116C51.978 512 0 460.022 0 396V116C0 51.978 51.978 0 116 0h280Z" fill="url(#background)" />
  <g fill="#e0f2fe">
    <circle cx="95" cy="111" r="4" /><circle cx="410" cy="94" r="3" /><circle cx="438" cy="286" r="4" />
    <circle cx="82" cy="362" r="3" /><circle cx="365" cy="444" r="2.5" /><circle cx="150" cy="60" r="2.5" />
  </g>
  <g transform="translate(10 -16.976)">
    <path d="M311 123c41.946 0 76 34.054 76 76v140c0 41.946-34.054 76-76 76H181c-41.946 0-76-34.054-76-76V199c0-41.946 34.054-76 76-76h130Z" fill="none" stroke="#dbeafe" stroke-width="28" />
  </g>
  <g transform="translate(0 -30.52)"><path d="M209 76h94v74h-94z" fill="#dbeafe" /></g>
  <g transform="translate(0 -22)"><path d="m278 155-105 157h77l-16 89 105-157h-77l16-89Z" fill="url(#charge)" /></g>
</svg>
